<svg width="14" height="24" viewBox="0 0 14 24" fill="none" xmlns="http://www.w3.org/2000/svg">
<path d="M2.5 10.9041C2.5 10.3518 2.94772 9.90406 3.5 9.90406H10.5C11.0523 9.90406 11.5 10.3518 11.5 10.9041V20C11.5 20.5523 11.0523 21 10.5 21H3.5C2.94772 21 2.5 20.5523 2.5 20V10.9041Z" fill="black"/>
<path d="M6 1C5.44772 1 5 1.44772 5 2V4H9.5V2C9.5 1.44772 9.05229 1 8.5 1H6Z" fill="black"/>
<path d="M5 4H2C1.44772 4 1 4.44771 1 5V22C1 22.5523 1.44772 23 2 23H12.5C13.0523 23 13.5 22.5523 13.5 22V5C13.5 4.44772 13.0523 4 12.5 4H9.5M5 4V2C5 1.44772 5.44772 1 6 1H8.5C9.05228 1 9.5 1.44772 9.5 2V4M5 4H9.5M11.5 20V10.9041C11.5 10.3518 11.0523 9.90406 10.5 9.90406H3.5C2.94772 9.90406 2.5 10.3518 2.5 10.9041V20C2.5 20.5523 2.94772 21 3.5 21H10.5C11.0523 21 11.5 20.5523 11.5 20Z" stroke="black" stroke-linejoin="round"/>
</svg>
