<svg width="31" height="31" viewBox="0 0 31 31" fill="none" xmlns="http://www.w3.org/2000/svg">
<path d="M26.8304 13.1182L25.0634 7.81588C24.8071 7.04409 24.3141 6.3727 23.6544 5.89712C22.9947 5.42154 22.2019 5.16595 21.3886 5.16667H9.61121C8.79796 5.16595 8.00517 5.42154 7.34548 5.89712C6.68579 6.3727 6.19275 7.04409 5.93642 7.81588L4.16942 13.1182C3.69974 13.3147 3.29861 13.6456 3.0164 14.0694C2.7342 14.4932 2.58351 14.9909 2.58325 15.5V21.9583C2.58325 22.931 3.12963 23.7693 3.92529 24.2097C3.9085 24.295 3.87492 24.3725 3.87492 24.4616V27.125C3.87492 27.4676 4.011 27.7961 4.25324 28.0384C4.49547 28.2806 4.82401 28.4167 5.16659 28.4167H6.45825C6.80082 28.4167 7.12936 28.2806 7.3716 28.0384C7.61383 27.7961 7.74992 27.4676 7.74992 27.125V24.5417H23.2499V27.125C23.2499 27.4676 23.386 27.7961 23.6282 28.0384C23.8705 28.2806 24.199 28.4167 24.5416 28.4167H25.8333C26.1758 28.4167 26.5044 28.2806 26.7466 28.0384C26.9888 27.7961 27.1249 27.4676 27.1249 27.125V24.4616C27.1249 24.3725 27.0913 24.2937 27.0745 24.2097C27.4796 23.9893 27.818 23.664 28.0541 23.2679C28.2902 22.8718 28.4154 22.4195 28.4166 21.9583V15.5C28.4166 14.4292 27.7604 13.5095 26.8304 13.1182ZM5.16659 21.9583V15.5H25.8333L25.8358 21.9583H5.16659ZM9.61121 7.75001H21.3873C21.944 7.75001 22.4375 8.10392 22.6131 8.63351L24.0417 12.9167H6.95813L8.38542 8.63351C8.47112 8.3762 8.63564 8.15239 8.85565 7.99382C9.07566 7.83524 9.34001 7.74994 9.61121 7.75001Z" fill="black"/>
<path d="M8.39575 20.6667C9.4658 20.6667 10.3333 19.7992 10.3333 18.7292C10.3333 17.6591 9.4658 16.7917 8.39575 16.7917C7.3257 16.7917 6.45825 17.6591 6.45825 18.7292C6.45825 19.7992 7.3257 20.6667 8.39575 20.6667Z" fill="black"/>
<path d="M22.6042 20.6667C23.6743 20.6667 24.5417 19.7992 24.5417 18.7292C24.5417 17.6591 23.6743 16.7917 22.6042 16.7917C21.5342 16.7917 20.6667 17.6591 20.6667 18.7292C20.6667 19.7992 21.5342 20.6667 22.6042 20.6667Z" fill="black"/>
</svg>
