<svg width="40" height="24" viewBox="0 0 40 24" fill="none" xmlns="http://www.w3.org/2000/svg">
<path fill-rule="evenodd" clip-rule="evenodd" d="M33.7131 6.5H32.2131H7.71309H6.21309C6.43905 5.84628 6.32938 5.51791 5.71309 5C4.00826 4.18261 3.02084 4.22294 1.21309 5C0.901889 5.58566 0.957406 5.91429 1.21309 6.5C2.1893 6.87821 3.71309 6.5 3.71309 6.5L4.71309 7.5C2.9596 8.62291 2.41692 9.45025 2.71309 11.5V22C5.22631 23.1307 6.51424 22.9574 8.71309 22C7.77712 20.5759 6.8433 20.0978 4.21309 20V19C16.514 19.4792 23.4109 19.4854 35.7131 19V20C33.2603 19.9313 32.3774 20.3534 31.7131 22C33.7052 23.2485 34.9113 23.225 37.2131 22V11.5L35.2131 7.5C36.2198 7.09504 36.7754 6.87216 37.7131 6.5C38.6351 5.97042 38.8726 5.65226 38.2131 5C36.4056 3.55366 35.4213 3.58107 33.7131 5V6.5ZM29.7131 15.5C29.9705 13.0508 30.5484 12.0047 32.7131 11C33.9923 9.47393 34.6414 9.59139 35.7131 11C36.8812 11.6875 36.2335 12.6408 34.7131 14.5C32.8405 15.6275 31.7353 15.7484 29.7131 15.5ZM28.7131 11H11.2131C11.0096 13.7907 11.244 14.7616 12.2131 15.5H26.7131C28.6037 14.8737 28.6528 13.4921 28.7131 11ZM3.71309 11C4.47808 10.2447 5.03376 10.2765 6.21309 11C8.57849 11.4667 9.38991 12.5559 10.2131 15.5C7.83364 16.0186 6.62622 15.8163 4.71309 14.5C3.60496 13.2731 3.34422 12.516 3.71309 11Z" fill="#939393"/>
<path d="M32.2131 6.5L27.2131 1H12.2131L7.71309 6.5M32.2131 6.5H33.7131V5C35.4213 3.58107 36.4056 3.55366 38.2131 5C38.8726 5.65226 38.6351 5.97042 37.7131 6.5C36.7754 6.87216 36.2198 7.09504 35.2131 7.5L37.2131 11.5V22C34.9113 23.225 33.7052 23.2485 31.7131 22C32.3774 20.3534 33.2603 19.9313 35.7131 20V19C23.4109 19.4854 16.514 19.4792 4.21309 19V20C6.8433 20.0978 7.77712 20.5759 8.71309 22C6.51424 22.9574 5.22631 23.1307 2.71309 22V11.5C2.41692 9.45025 2.9596 8.62291 4.71309 7.5L3.71309 6.5C3.71309 6.5 2.1893 6.87821 1.21309 6.5C0.957406 5.91429 0.901889 5.58566 1.21309 5C3.02084 4.22294 4.00826 4.18261 5.71309 5C6.32938 5.51791 6.43905 5.84628 6.21309 6.5H7.71309M32.2131 6.5H7.71309M32.7131 11C30.5484 12.0047 29.9705 13.0508 29.7131 15.5C31.7353 15.7484 32.8405 15.6275 34.7131 14.5C36.2335 12.6408 36.8812 11.6875 35.7131 11C34.6414 9.59139 33.9923 9.47393 32.7131 11ZM11.2131 11H28.7131C28.6528 13.4921 28.6037 14.8737 26.7131 15.5H12.2131C11.244 14.7616 11.0096 13.7907 11.2131 11ZM6.21309 11C5.03376 10.2765 4.47808 10.2447 3.71309 11C3.34422 12.516 3.60496 13.2731 4.71309 14.5C6.62622 15.8163 7.83364 16.0186 10.2131 15.5C9.38991 12.5559 8.57849 11.4667 6.21309 11Z" stroke="#939393"/>
</svg>
