<svg width="22" height="27" viewBox="0 0 22 27" fill="none" xmlns="http://www.w3.org/2000/svg">
<path d="M10.5 7.5H8.5L11.5 3.5L14.5 7.5H12.5V11H14.5L11.5 15L8.5 11H10.5V7.5Z" fill="black"/>
<path d="M4.5 20H18.5M4.5 17.5H18.5M10.5 7.5H8.5L11.5 3.5L14.5 7.5H12.5V11H14.5L11.5 15L8.5 11H10.5V7.5ZM4.44175 26.5H18.5C20.1569 26.5 21.5 25.1569 21.5 23.5V4C21.5 2.34315 20.1569 1 18.5 1H4.0594C2.37953 1 1.02704 2.37927 1.05998 4.05881L1.44233 23.5588C1.47436 25.1924 2.80782 26.5 4.44175 26.5Z" stroke="black"/>
</svg>
