<svg width="29" height="28" viewBox="0 0 29 28" fill="none" xmlns="http://www.w3.org/2000/svg">
<path d="M11.7751 13.0749V14.5749C9.78693 15.6751 8.56233 15.5325 6.27506 14.5749C4.37107 13.2754 3.40027 13.6545 1.77506 15.5749C0.618482 17.269 0.605949 18.3253 2.77506 20.5749C4.42862 22.4591 5.50381 23.2598 7.77506 24.0749C10.9612 23.6967 12.3755 22.79 13.7751 19.0749C14.2654 17.8161 14.1871 17.1731 13.7751 16.0749H15.7751C16.5728 17.9663 16.5474 19.0647 15.7751 21.0749C14.6565 22.9908 14.5518 24.1453 16.7751 26.5749C19.8298 26.1453 21.097 26.2098 22.7751 25.0749C24.7579 23.1841 25.2563 22.0876 25.2751 20.0749C24.7059 17.1718 23.3813 16.235 20.2751 15.0749C18.7509 14.7413 18.1115 14.5187 17.2751 14.0749V12.0749C19.3198 11.5078 20.4193 11.481 22.2751 12.0749C25.0162 13.648 26.3106 13.7269 27.7751 11.0749C28.8944 7.95881 28.2271 6.68908 25.2751 5.07492C22.5691 3.11661 21.0382 2.89674 18.2751 4.57492C15.8837 6.32158 15.2926 7.78661 15.2751 11.0749H13.2751C12.2442 9.47015 12.2246 8.27575 13.2751 5.57492C14.8508 2.46349 14.4018 1.55366 11.7751 1.07492C7.49509 0.724165 5.80513 1.53112 4.27506 5.07492C3.71077 7.86907 4.46462 9.4021 7.77506 12.0749C8.81124 12.5954 9.47072 12.8679 11.7751 13.0749Z" fill="black" stroke="black"/>
</svg>
