<svg width="25" height="17" viewBox="0 0 25 17" fill="none" xmlns="http://www.w3.org/2000/svg">
<path d="M12.0944 4.168C12.8224 4.168 13.4384 4.292 13.9424 4.54C14.4464 4.78 14.8304 5.124 15.0944 5.572C15.3584 6.012 15.4904 6.536 15.4904 7.144C15.4904 7.504 15.4344 7.868 15.3224 8.236C15.2184 8.596 15.0464 8.924 14.8064 9.22C14.5744 9.516 14.2584 9.756 13.8584 9.94C13.4664 10.116 12.9824 10.204 12.4064 10.204H11.1584V13H9.41838V4.168H12.0944ZM12.3944 8.512C12.6584 8.512 12.8784 8.468 13.0544 8.38C13.2304 8.284 13.3664 8.168 13.4624 8.032C13.5664 7.888 13.6384 7.74 13.6784 7.588C13.7264 7.436 13.7504 7.304 13.7504 7.192C13.7504 7.104 13.7344 6.988 13.7024 6.844C13.6784 6.692 13.6224 6.54 13.5344 6.388C13.4464 6.236 13.3104 6.108 13.1264 6.004C12.9504 5.9 12.7104 5.848 12.4064 5.848H11.1584V8.512H12.3944Z" fill="white"/>
<circle cx="11.7784" cy="8.5" r="7.5" stroke="#F6F9FF" stroke-width="2"/>
<path d="M3.77835 1.5C0.0511842 7.09793 0.096652 10.1591 3.77835 15.5M20.7784 1.5C23.9786 6.90384 24.0814 9.96768 20.7784 15.5" stroke="#F6F9FF" stroke-width="2" stroke-linejoin="round"/>
</svg>
