<svg width="33" height="32" viewBox="0 0 33 32" fill="none" xmlns="http://www.w3.org/2000/svg">
<path d="M8.20716 22.6355L7.28376 23.5589C7.04154 23.8025 6.90557 24.1322 6.90557 24.4757C6.90557 24.8193 7.04154 25.149 7.28376 25.3926C7.52744 25.6349 7.85707 25.7708 8.20065 25.7708C8.54424 25.7708 8.87387 25.6349 9.11754 25.3926L10.0409 24.4692C10.254 24.2204 10.3653 23.9004 10.3527 23.5731C10.3401 23.2458 10.2044 22.9353 9.97274 22.7037C9.74112 22.472 9.43063 22.3363 9.10331 22.3237C8.77599 22.3111 8.45595 22.4224 8.20716 22.6355ZM7.3748 16.1327C7.3748 15.7878 7.23778 15.457 6.99388 15.2131C6.74998 14.9692 6.41918 14.8321 6.07425 14.8321H4.7737C4.42877 14.8321 4.09797 14.9692 3.85407 15.2131C3.61017 15.457 3.47314 15.7878 3.47314 16.1327C3.47314 16.4776 3.61017 16.8084 3.85407 17.0523C4.09797 17.2962 4.42877 17.4332 4.7737 17.4332H6.07425C6.41918 17.4332 6.74998 17.2962 6.99388 17.0523C7.23778 16.8084 7.3748 16.4776 7.3748 16.1327ZM16.4787 7.02883C16.8236 7.02883 17.1544 6.8918 17.3983 6.6479C17.6422 6.404 17.7792 6.0732 17.7792 5.72827V4.42772C17.7792 4.08279 17.6422 3.75199 17.3983 3.50809C17.1544 3.26419 16.8236 3.12717 16.4787 3.12717C16.1337 3.12717 15.8029 3.26419 15.559 3.50809C15.3151 3.75199 15.1781 4.08279 15.1781 4.42772V5.72827C15.1781 6.0732 15.3151 6.404 15.559 6.6479C15.8029 6.8918 16.1337 7.02883 16.4787 7.02883ZM8.20716 9.69496C8.4494 9.93523 8.77636 10.0707 9.11754 10.0721C9.28871 10.0731 9.45838 10.0403 9.61684 9.97558C9.77529 9.91086 9.91941 9.8155 10.0409 9.69496C10.2832 9.45128 10.4191 9.12166 10.4191 8.77807C10.4191 8.43448 10.2832 8.10485 10.0409 7.86118L9.11754 6.93779C8.86875 6.72472 8.54871 6.61339 8.22139 6.62603C7.89408 6.63867 7.58358 6.77436 7.35196 7.00598C7.12034 7.2376 6.98465 7.5481 6.97201 7.87542C6.95936 8.20273 7.0707 8.52277 7.28376 8.77157L8.20716 9.69496ZM23.8138 10.0721C24.155 10.0707 24.4819 9.93523 24.7242 9.69496L25.6476 8.77157C25.7837 8.65498 25.8943 8.5115 25.9724 8.35015C26.0504 8.1888 26.0943 8.01305 26.1012 7.83394C26.1081 7.65483 26.0779 7.47622 26.0126 7.30933C25.9472 7.14243 25.848 6.99086 25.7212 6.86411C25.5945 6.73737 25.4429 6.63819 25.276 6.5728C25.1091 6.50742 24.9305 6.47724 24.7514 6.48416C24.5723 6.49107 24.3966 6.53494 24.2352 6.61301C24.0739 6.69107 23.9304 6.80164 23.8138 6.93779L22.9814 7.86118C22.7392 8.10485 22.6032 8.43448 22.6032 8.77807C22.6032 9.12166 22.7392 9.45128 22.9814 9.69496C23.2107 9.92303 23.5167 10.0575 23.8398 10.0721H23.8138ZM28.1837 14.8321H26.8831C26.5382 14.8321 26.2074 14.9692 25.9635 15.2131C25.7196 15.457 25.5825 15.7878 25.5825 16.1327C25.5825 16.4776 25.7196 16.8084 25.9635 17.0523C26.2074 17.2962 26.5382 17.4332 26.8831 17.4332H28.1837C28.5286 17.4332 28.8594 17.2962 29.1033 17.0523C29.3472 16.8084 29.4842 16.4776 29.4842 16.1327C29.4842 15.7878 29.3472 15.457 29.1033 15.2131C28.8594 14.9692 28.5286 14.8321 28.1837 14.8321ZM16.4787 25.2366C16.1337 25.2366 15.8029 25.3736 15.559 25.6175C15.3151 25.8614 15.1781 26.1922 15.1781 26.5371V27.8377C15.1781 28.1826 15.3151 28.5134 15.559 28.7573C15.8029 29.0012 16.1337 29.1382 16.4787 29.1382C16.8236 29.1382 17.1544 29.0012 17.3983 28.7573C17.6422 28.5134 17.7792 28.1826 17.7792 27.8377V26.5371C17.7792 26.1922 17.6422 25.8614 17.3983 25.6175C17.1544 25.3736 16.8236 25.2366 16.4787 25.2366ZM24.7502 22.6355C24.5031 22.498 24.218 22.4449 23.9379 22.484C23.6579 22.5231 23.3983 22.6525 23.1984 22.8524C22.9984 23.0523 22.8691 23.312 22.83 23.592C22.7908 23.872 22.844 24.1571 22.9814 24.4042L23.9048 25.3276C24.1485 25.5698 24.4781 25.7058 24.8217 25.7058C25.1653 25.7058 25.4949 25.5698 25.7386 25.3276C25.9808 25.0839 26.1168 24.7543 26.1168 24.4107C26.1168 24.0671 25.9808 23.7375 25.7386 23.4938L24.7502 22.6355ZM16.4787 8.97966C15.0639 8.97966 13.681 9.39917 12.5047 10.1852C11.3283 10.9711 10.4115 12.0883 9.87013 13.3953C9.32873 14.7024 9.18707 16.1406 9.46308 17.5282C9.73908 18.9157 10.4203 20.1903 11.4207 21.1907C12.4211 22.191 13.6956 22.8723 15.0832 23.1483C16.4707 23.4243 17.909 23.2826 19.216 22.7412C20.5231 22.1998 21.6402 21.283 22.4262 20.1067C23.2122 18.9304 23.6317 17.5474 23.6317 16.1327C23.6283 14.2366 22.8736 12.4192 21.5328 11.0785C20.1921 9.73782 18.3747 8.98309 16.4787 8.97966ZM16.4787 20.6846C15.5784 20.6846 14.6983 20.4177 13.9498 19.9175C13.2012 19.4173 12.6178 18.7064 12.2732 17.8746C11.9287 17.0429 11.8386 16.1276 12.0142 15.2447C12.1898 14.3617 12.6234 13.5506 13.26 12.914C13.8966 12.2774 14.7076 11.8439 15.5906 11.6682C16.4736 11.4926 17.3889 11.5827 18.2206 11.9273C19.0524 12.2718 19.7633 12.8552 20.2635 13.6038C20.7636 14.3523 21.0306 15.2324 21.0306 16.1327C21.0306 17.3399 20.551 18.4977 19.6974 19.3514C18.8437 20.2051 17.6859 20.6846 16.4787 20.6846Z" fill="black"/>
</svg>
